<?xml version="1.0" encoding="UTF-8"?>
<svg width="512px" height="512px" viewBox="0 0 512 512" version="1.1" xmlns="http://www.w3.org/2000/svg" xmlns:xlink="http://www.w3.org/1999/xlink">
    <!-- Generator: Sketch 64 (93537) - https://sketch.com -->
    <title>olizilla</title>
    <desc>Created with Sketch.</desc>
    <defs>
        <linearGradient x1="103.20371%" y1="49.7605945%" x2="3.20371028%" y2="50.2394055%" id="linearGradient-1">
            <stop stop-color="#F35A2E" offset="0%"></stop>
            <stop stop-color="#FFC33E" offset="100%"></stop>
        </linearGradient>
        <linearGradient x1="3.20371028%" y1="50.2352389%" x2="103.20371%" y2="49.7647611%" id="linearGradient-2">
            <stop stop-color="#F35A2E" offset="0%"></stop>
            <stop stop-color="#FFC33E" offset="100%"></stop>
        </linearGradient>
        <linearGradient x1="50%" y1="46.1166353%" x2="56.4074206%" y2="53.8833647%" id="linearGradient-3">
            <stop stop-color="#F35A2E" offset="0%"></stop>
            <stop stop-color="#FFC33E" offset="100%"></stop>
        </linearGradient>
    </defs>
    <g id="olizilla" stroke="none" stroke-width="1" fill="none" fill-rule="evenodd">
        <rect fill="#FFFFFF" x="0" y="0" width="512" height="512"></rect>
        <g transform="translate(-83.000000, 29.000000)">
            <g id="torso">
                <path d="M208.951943,142.717101 C206.453725,147.503651 204.42046,152.108646 204.434914,152.95029 C204.47105,155.006306 196.181399,171.406342 187.27984,186.890187 C183.287991,193.833751 178.667372,201.907522 177.012333,204.832836 C172.606121,212.618044 155.908773,229.44371 146.073696,236.009736 C141.37719,239.146664 131.022955,244.557233 123.064553,248.035628 C114.825492,251.636662 105.059073,257.002744 100.379431,260.500376 C84.8974649,272.074184 73.2736438,289.55994 68.5662974,308.357459 C65.9921931,318.63273 63.7107924,323.538313 59.9092609,326.966209 C52.7301962,333.443261 44.2803407,360.080093 45.0488379,373.813319 C45.4728364,381.407353 49.0021417,391.289456 51.2895651,391.289456 C52.3363113,391.289456 56.302865,402.951036 56.302865,406.03025 C56.302865,408.430138 67.0365302,417.723091 69.8202246,417.733912 C71.1753333,417.738722 72.8279636,419.930603 74.5841844,424.053457 C84.0217636,446.205528 96.2550825,463.757413 115.869829,483.289567 C145.620788,512.914235 176.249858,529.034123 215.457669,535.702349 C237.024977,539.370715 268.663452,538.572355 289.381558,533.837506 C304.658752,530.345886 319.46738,525.125288 331.992197,518.81416 C339.562738,515.00031 339.562738,515.00031 339.165239,506.849589 C338.767741,498.698867 338.767741,498.698867 346.022692,502.090693 C350.013336,503.956738 355.975814,505.813164 359.272643,506.215951 C362.569472,506.618738 368.248883,508.015867 371.89262,509.320415 C375.536356,510.624963 382.3119,513.056112 386.949383,514.724972 C397.654139,518.576095 413.72633,519.644983 429.575681,517.561313 C441.15373,516.039139 441.15373,516.039139 458.017305,520.5239 C472.375434,524.342559 475.954125,524.887223 482.108126,524.192265 C491.80709,523.095723 491.065093,523.096926 506.887944,524.150183 C528.425138,525.583383 532.198965,523.466047 530.476471,510.923146 C529.75736,505.68331 529.75736,505.68331 535.755975,503.693423 C542.421905,501.483507 544.469625,498.846756 543.913127,493.183694 C543.637287,490.381019 542.255678,488.407965 538.654101,485.672622 C533.950368,482.102849 533.825096,481.829916 535.286204,478.408032 C538.964872,469.80162 536.122155,463.528967 527.355506,460.906645 C523.481702,459.748783 521.191869,459.848578 514.764438,461.460927 C510.443749,462.544244 505.42804,463.430375 503.617615,463.430375 C500.328014,463.430375 500.328014,463.430375 503.794683,459.817317 C506.763876,456.724876 507.097534,455.736546 506.11222,452.941085 C504.658339,448.814624 497.886409,444.192796 493.294698,444.192796 C491.362615,444.192796 487.24188,445.215995 484.137777,446.465235 C481.033675,447.715678 475.881853,449.668292 472.688615,450.805714 C469.495376,451.941933 463.556989,455.535753 459.494072,458.791714 C455.42995,462.046471 450.890035,465.01507 449.403632,465.386596 C445.393714,466.391759 439.620349,464.000288 431.517402,457.978926 C419.649059,449.160901 410.512615,445.265291 398.114274,443.737106 C387.171018,442.389273 387.171018,442.389273 384.519823,434.541544 C381.600016,425.900264 378.856071,420.136205 375.172585,414.909595 C373.092343,411.957829 372.734594,409.426885 372.623776,396.851521 C372.49489,382.226152 372.49489,382.226152 367.502068,373.832556 C364.755714,369.21674 361.857588,363.004204 361.062591,360.028392 C356.262495,342.078529 342.793317,323.147549 324.296385,308.353852 C317.23657,302.707622 317.01373,302.349323 315.544189,294.322443 C314.277012,287.392106 314.330012,284.5738 315.877847,276.579384 C316.890866,271.351572 318.254407,259.177792 318.908473,249.52654 C319.562538,239.875287 320.225036,230.515003 320.380422,228.725908 C320.632171,225.817427 319.132517,224.431119 306.227064,215.647962 C287.430201,202.856175 278.597302,195.858506 264.899261,182.909211 C258.72117,177.069404 249.235409,169.41405 243.819793,165.898383 C231.670792,158.009773 225.616768,151.844129 223.142641,144.841651 C221.188875,139.310847 217.080186,133.977228 214.791558,134.000073 C214.07847,134.007287 211.451366,137.929348 208.951943,142.717101 M203.558008,337.979722 C202.730488,338.313975 202.052332,339.352804 202.052332,340.289434 C202.052332,342.315391 200.906813,342.412782 196.551193,340.760755 C192.573798,339.250605 189.209515,340.190841 187.556885,343.272461 C186.586025,345.081996 186.90041,346.382937 188.989084,349.202444 C191.121122,352.080867 192.566571,352.8143 196.105513,352.8143 C203.480918,352.8143 208.287036,351.482097 207.539016,349.644909 C205.101025,343.663224 205.101025,343.659617 207.846174,346.064314 C210.098666,348.038571 210.526278,348.091474 211.149026,346.473113 C212.041591,344.151378 208.530354,337.150102 206.538043,337.278753 C205.727387,337.330454 204.386732,337.646672 203.558008,337.979722 M174.649023,363.749661 C171.453376,364.941188 171.306422,366.142334 173.776935,370.909647 C175.542792,374.318305 175.937882,374.456575 183.944466,374.456575 C188.525336,374.456575 192.560548,373.993671 192.909865,373.428567 C193.628976,372.268301 189.532332,368.227207 185.570597,366.191631 C180.165821,363.413003 177.283354,362.768544 174.649023,363.749661 M165.514988,390.889074 C165.072922,391.329134 164.711559,393.159108 164.711559,394.954215 C164.711559,397.82903 165.371648,398.383313 170.244016,399.608506 C175.504247,400.93109 180.442865,400.49584 180.307957,398.723578 C180.27423,398.271495 178.047033,396.14454 175.359702,393.994741 C170.682469,390.254234 167.238686,389.167311 165.514988,390.889074 M495.237623,451.601669 C494.27399,453.15871 498.870519,457.418631 501.514486,457.418631 C504.027159,457.418631 503.527275,452.874956 500.858012,451.44897 C497.835818,449.835418 496.306051,449.876298 495.237623,451.601669 M523.163703,466.872699 C522.143456,468.521119 524.353789,473.797025 526.391873,474.577349 C527.331415,474.936851 528.85275,474.766118 529.774224,474.198609 C531.154628,473.346144 531.016106,472.586259 528.988863,469.876166 C526.220828,466.175337 524.230926,465.149733 523.163703,466.872699 M529.067158,493.546803 C528.346843,495.812028 530.164495,499.552535 531.942398,499.462359 C532.359169,499.441919 533.782937,498.595465 535.107932,497.580683 C537.498946,495.751911 537.495332,495.72065 534.673092,493.410938 C531.067901,490.460374 530.040428,490.485624 529.067158,493.546803 M519.316399,513.238869 C518.220266,516.089638 519.770511,518.968061 522.155502,518.509966 C523.488929,518.253865 524.267062,517.008232 524.267062,515.131366 C524.267062,511.70347 520.465531,510.251033 519.316399,513.238869" id="Shape" fill="#367547"></path>
                <path d="M210.790822,142.616932 C208.360576,147.399512 206.082821,152.693391 205.72741,154.379233 C205.097035,157.37347 201.103459,164.906697 183.989678,195.386903 C176.851431,208.100656 173.769197,212.177787 163.545115,222.438749 C150.286827,235.74339 144.499384,239.610696 124.333387,248.641644 C109.145552,255.444099 103.862409,258.780811 94.1030026,267.739406 C81.8281,279.00729 73.2249818,294.787634 68.7211024,314.300223 C67.2982559,320.464759 65.7997645,323.618175 62.7931758,326.771591 C57.1594242,332.681683 53.9307033,339.733758 50.1196361,354.45412 C45.5713302,372.02763 45.9135338,379.551209 51.6925718,388.99578 C54.0867962,392.90891 56.7055541,399.008328 57.5124342,402.551248 C58.6951378,407.752273 59.9234685,409.769736 63.8882272,413.032888 C66.5886338,415.255353 70.2664217,417.634584 72.0614897,418.319532 C73.9057869,419.023775 75.3322355,420.496173 75.3430419,421.705686 C75.3694576,424.910955 85.194903,443.873656 92.6069125,455.024569 C98.6260934,464.079636 120.691621,490.239119 121.562138,489.350374 C121.769862,489.138137 120.910151,479.196737 119.650601,467.258375 C118.392253,455.320013 117.705444,443.652978 118.124493,441.331629 C118.544743,439.010281 123.138676,428.564818 128.331766,418.118148 C137.776585,399.125299 137.776585,399.125299 147.675274,399.00471 C153.119312,398.938386 158.924766,398.480146 160.575748,397.984523 C163.761243,397.028248 163.445456,396.906452 143.355104,391.308687 C139.826204,390.325883 135.48322,388.371127 133.703762,386.963847 C130.651546,384.554468 130.511062,384.008198 131.251903,377.438481 C132.639929,365.115439 130.812442,365.175733 122.395434,377.727896 C112.071692,393.124765 112.32024,392.857056 106.417529,394.960138 C98.0257363,397.950758 87.7236073,398.437939 79.3546285,396.239592 C69.5976239,393.677065 69.3214596,393.721683 69.3214596,397.877198 C69.3214596,402.894928 75.4763212,409.602116 81.6023657,411.25781 C85.7484323,412.379293 87.8845031,412.136908 96.2006505,409.597293 C105.951652,406.619938 127.702592,404.171971 126.459852,406.191845 C126.099638,406.775498 121.727837,409.277731 116.744873,411.751022 C107.683082,416.246599 107.683082,416.246599 92.4856404,415.366295 C77.2881991,414.485992 77.2881991,414.485992 71.6280318,409.1692 C67.6764809,405.457455 65.721718,402.533159 65.1513787,399.478627 C64.7023116,397.074072 62.7547529,391.112126 60.8240043,386.230663 C56.7391741,375.902171 56.3513434,368.315884 59.1490078,353.500257 C61.447175,341.336392 63.5220094,336.257162 69.4235203,328.348902 C74.8015198,321.143678 76.4332905,317.585082 80.0990714,305.065478 C87.1988952,280.813721 102.239043,265.363792 131.662547,252.094122 C160.060642,239.287516 173.90728,226.190289 191.03667,195.933174 C196.893755,185.587799 203.139871,173.215315 204.916928,168.438764 C206.695186,163.663419 210.673152,154.877267 213.758988,148.914116 C219.076952,138.636272 219.260661,137.965794 217.287887,135.996567 C215.317515,134.028546 214.976512,134.375844 210.790822,142.616932 M273.324024,193.895211 C274.857337,196.092352 281.1827,208.192304 287.378386,220.785467 C297.769367,241.905514 299.159795,245.614848 305.299047,268.588356 C308.960025,282.286119 312.340036,296.020059 312.810716,299.10715 C313.599585,304.278029 314.374046,305.292186 322.672182,312.004199 C327.625129,316.010183 332.993523,320.707144 334.60248,322.442427 C343.502175,332.037735 353.300003,349.237417 356.30299,360.536655 C357.095461,363.521245 359.98438,369.758135 362.722009,374.396008 C367.69897,382.828832 367.69897,382.828832 367.712178,396.705068 C367.724185,410.24727 367.81664,410.721187 371.529248,416.4106 C373.622093,419.617076 376.791979,426.400236 378.57504,431.48429 C383.036894,444.206484 385.760115,446.548332 398.945159,449.00474 C410.481622,451.153645 415.13439,453.461729 430.086885,464.453463 C438.276958,470.473292 440.392616,471.479008 444.877284,471.479008 C449.30792,471.479008 451.142612,470.633676 456.847206,465.966861 C464.322853,459.851767 471.505526,455.802371 474.879533,455.802371 C476.098258,455.802371 479.649971,454.174413 482.77423,452.184686 C485.898489,450.194959 489.920882,448.59353 491.714749,448.624883 C496.788968,448.715325 503.177969,452.415012 504.110924,455.802371 C504.675259,457.851187 504.980241,458.115278 505.060689,456.627204 C505.386082,450.676111 498.191402,445.53538 490.916274,446.51939 C480.624951,447.912199 466.777113,454.304649 457.921845,461.749846 C452.912465,465.962038 451.289099,466.655428 446.437012,466.655428 C441.571718,466.655428 439.628962,465.819742 432.459497,460.641628 C419.396926,451.206705 407.7548,446.100945 396.761059,444.985492 C391.613597,444.463339 387.250201,443.833862 387.06409,443.587859 C386.87918,443.341857 385.245008,438.980134 383.431929,433.89608 C381.620052,428.812026 378.421349,422.028866 376.324901,418.822391 C372.577472,413.091977 372.512633,412.745885 372.50663,398.522352 C372.501827,384.05161 372.501827,384.05161 367.321945,375.26787 C364.47265,370.437054 361.315972,363.691277 360.307372,360.278593 C357.392038,350.421606 353.256778,341.868192 347.466933,333.725988 C342.282249,326.43394 328.610915,312.460027 320.593746,306.258108 C317.343412,303.743817 316.445278,301.912062 315.065657,294.976959 C313.664424,287.936944 313.668026,285.499829 315.089671,278.697375 C317.166907,268.753564 320.551721,226.432674 319.351007,225.410074 C318.865918,224.997658 312.255986,220.434551 304.661468,215.272114 C297.066949,210.108471 287.071003,202.876718 282.448253,199.199943 C270.301826,189.541929 270.270608,189.523841 273.324024,193.895211 M150.520967,327.123712 C151.070894,334.313259 150.848762,338.018975 149.742904,340.116026 C146.534595,346.199767 139.540434,353.579846 134.244083,356.470376 C131.226688,358.117629 129.746207,359.164346 130.956527,358.795342 C132.165647,358.426338 134.437398,358.124865 136.00313,358.124865 C137.787391,358.124865 140.833603,356.10499 144.15598,352.720043 C149.72009,347.052335 162.728629,340.038849 167.681576,340.037643 C169.278526,340.036437 174.141419,339.390078 178.488005,338.600216 C186.391106,337.162789 186.391106,337.162789 179.873629,336.16672 C174.247082,335.306917 172.435204,334.287935 166.61294,328.71067 C162.902733,325.156897 157.591973,321.083383 154.809918,319.658015 C149.751309,317.065341 149.751309,317.065341 150.520967,327.123712 M305.53919,341.495571 C295.293494,344.932372 294.912868,345.195257 291.441603,351.274174 C286.289338,360.296682 286.619534,361.839022 294.534643,365.737681 C304.106738,370.452731 312.252384,378.687789 319.741239,391.221863 C323.534295,397.569695 326.267121,401.116232 326.269523,399.695688 C326.28153,393.22606 336.204233,386.633432 346.086112,386.527313 C351.284004,386.471842 352.138913,386.116103 352.455901,383.880373 C352.70565,382.119766 351.644218,380.453219 349.127521,378.652818 C343.372497,374.537097 337.079554,376.14335 329.039571,383.780284 C325.522678,387.120613 322.478867,389.633699 322.274746,389.364784 C322.071825,389.09587 321.258942,386.614137 320.468872,383.850226 C319.18891,379.367913 319.307781,378.358579 321.572328,374.504538 C324.712196,369.158805 328.899087,350.481901 327.915702,346.207003 C325.703986,336.592401 322.299961,335.876099 305.53919,341.495571 M161.257754,353.183106 C159.562345,355.640721 158.17432,358.029599 158.17432,358.491457 C158.17432,358.953315 160.470086,359.363319 163.277356,359.403113 C166.084626,359.441702 171.081999,359.920442 174.383963,360.465507 C179.968485,361.386811 180.662498,361.213162 184.331881,357.981363 C186.500371,356.071225 188.797338,354.507179 189.434917,354.507179 C190.887782,354.507179 190.88538,353.221695 189.427713,350.90517 C188.469543,349.382125 187.923218,349.518391 185.797954,351.809592 C182.623265,355.231922 180.233843,355.198157 171.439812,351.610619 C164.341189,348.714059 164.341189,348.714059 161.257754,353.183106 M159.902148,370.153669 C153.918988,370.59985 148.381294,371.364387 147.594826,371.851569 C145.312268,373.268496 145.936639,376.781268 148.984052,379.656122 C151.800928,382.313915 151.800928,382.313915 157.088874,379.278677 C160.877128,377.103242 164.164683,376.238616 168.68057,376.227762 C172.935902,376.218115 174.972313,375.723698 174.945897,374.705923 C174.906274,373.123788 172.055778,368.846478 171.250099,369.160011 C170.991945,369.2601 165.886508,369.706282 159.902148,370.153669 M330.580087,443.710861 C330.001343,450.853378 328.565288,458.041719 326.747407,462.891829 C323.839277,470.649352 323.839277,470.649352 327.399395,484.027553 C329.35776,491.385925 331.797611,499.780161 332.819419,502.682751 C333.842428,505.584135 334.679326,510.061623 334.679326,512.631386 C334.679326,517.541791 335.817603,518.475154 338.235842,515.549652 C339.24204,514.332904 339.431753,511.423079 338.859012,506.045992 C338.032921,498.295704 338.032921,498.295704 345.060702,501.7928 C348.927002,503.716203 355.061451,505.610664 358.693612,506.00258 C366.022772,506.793647 373.641305,509.01973 380.906827,512.492708 C394.353627,518.918923 410.111802,520.780825 427.224382,517.962648 C439.741829,515.901773 439.741829,515.901773 458.665087,520.807355 C475.771664,525.242637 478.158684,525.591141 483.523476,524.435893 C487.589094,523.559208 493.815999,523.526648 503.294438,524.329775 C516.118067,525.417492 523.225095,524.944781 526.726378,522.771758 C529.364347,521.134152 530.49542,516.048893 529.238272,511.477344 C527.893472,506.587439 528.701553,505.675783 536.399333,503.397847 C541.519178,501.882036 544.178761,497.273105 542.49656,492.830588 C541.87459,491.186952 539.242624,488.309687 536.64788,486.435726 C531.942281,483.038719 531.935077,483.019425 533.631686,478.941087 C536.322487,472.47146 535.277865,467.79741 530.395761,464.476375 C526.827238,462.048908 525.286721,461.732964 520.189689,462.385353 C516.887725,462.808622 510.674028,463.467041 506.381474,463.848104 C498.576831,464.542699 498.576831,464.542699 500.812561,462.038055 C503.013471,459.574411 502.999062,459.521352 499.903621,458.741138 C496.65929,457.923541 491.637903,460.351008 488.70816,464.153195 C487.512249,465.705182 487.700761,466.438366 489.741975,468.162796 C492.819406,470.763912 499.839983,470.874855 508.782903,468.46427 C522.525078,464.75976 531.190634,467.032873 530.191639,474.08133 C529.687339,477.643544 525.323944,479.749037 515.024216,481.402319 C499.942043,483.823757 501.099532,486.632286 517.898726,488.372393 C529.292304,489.552965 534.172007,491.2581 536.39573,494.833579 C537.63967,496.834159 537.542413,497.480519 535.809782,498.752739 C531.999915,501.551621 523.008966,502.729781 514.186118,501.587798 C509.563367,500.988468 505.376476,500.481992 504.880581,500.460286 C504.384686,500.43858 503.980046,501.450326 503.980046,502.710486 C503.980046,504.474711 506.114916,505.765019 513.285582,508.339605 C524.009161,512.190028 525.592904,513.188509 525.592904,516.097128 C525.592904,520.419057 522.928519,521.036475 512.255369,519.18422 C494.465585,516.098334 483.286935,515.057647 480.273142,516.209277 C475.329801,518.096503 467.803724,517.369348 454.289684,513.697397 C447.102208,511.745053 440.950949,509.87471 440.619551,509.541882 C440.288154,509.209055 441.618546,508.014013 443.576911,506.885295 C445.535276,505.756578 448.014751,503.297757 449.086989,501.421385 C450.906071,498.237821 451.546052,498.009907 458.596646,498.035231 C465.934212,498.060555 466.210376,498.176321 467.958616,501.95439 C469.740476,505.804813 469.843737,505.843402 477.467073,505.543134 C481.705594,505.375515 485.343759,505.068011 485.551482,504.860597 C485.758005,504.651978 485.306537,502.82987 484.547685,500.80879 C483.355376,497.639697 483.536684,496.535097 485.868471,492.747381 C487.404184,490.249972 489.821222,488.098655 491.472205,487.756181 C501.236413,485.735101 500.550806,486.56355 497.295669,480.713753 C495.647088,477.753281 492.578062,474.504599 490.225863,473.23238 C486.214277,471.062974 485.911697,471.059357 481.560308,473.144349 C479.080833,474.33095 474.600968,477.362571 471.605185,479.878068 C468.608202,482.394771 462.375294,486.17284 457.752544,488.27351 C453.129794,490.374179 447.297925,494.099189 444.793234,496.55198 C440.435842,500.818437 439.830682,501.029469 430.718461,501.444297 C421.3709,501.871183 421.127155,501.808477 417.365317,498.030407 C415.256863,495.912856 412.195041,493.669891 410.559668,493.045237 C406.702974,491.572839 391.56797,493.573419 377.142588,497.463637 C371.110199,499.089183 365.074208,500.420492 363.729408,500.420492 C361.050614,500.420492 360.549917,498.843181 359.320385,486.552697 C358.096857,474.315273 357.519314,472.367753 355.589766,473.975211 C353.555756,475.671906 351.191549,474.302009 342.727714,466.522779 C336.966686,461.228899 336.966686,461.228899 334.236262,446.758158 C331.504637,432.287416 331.504637,432.287416 330.580087,443.710861" id="Shape" fill-opacity="0.85" fill="#111111"></path>
                <g id="right-hand" transform="translate(163.000000, 338.000000)" fill="#FCF6D0">
                    <path d="M38.9834113,1.45020977 C38.5274876,2.17153885 40.0237577,4.29444538 42.3083187,6.16965934 C46.0397272,9.23258936 46.5005932,9.35099849 46.8477871,7.3380433 C47.7262744,2.247659 41.4496005,-2.45125021 38.9834113,1.45020977" id="Path"></path>
                    <path d="M25.6479505,3.55861722 C22.8666921,6.56355093 23.0792094,8.93294177 26.3831121,11.7832187 C30.1367608,15.0189294 43.3721408,14.480047 43.3721408,11.0896795 C43.3721408,8.16932371 39.9100856,5.37704313 33.5802824,3.19251552 C27.1170382,0.96328243 28.0918995,0.918576942 25.6479505,3.55861722" id="Path"></path>
                    <path d="M8.77877177,26.6943111 C7.16265181,27.6935392 7.23307906,28.3907031 9.32612739,32.1930861 C11.1955383,35.5882866 12.2853073,36.4002349 14.2659191,35.8806847 C15.663344,35.5133747 19.865503,35.2028528 23.6030893,35.1907703 C30.3987007,35.1678134 30.3987007,35.1678134 26.6920036,32.1375063 C19.8346138,26.5299883 12.6003765,24.3321698 8.77877177,26.6943111" id="Path"></path>
                    <path d="M0.951462945,52.9013929 C-0.989610799,54.7995637 0.218772474,59.4380601 2.90736348,60.4058735 C8.45134686,62.4031213 11.922051,62.8477597 13.680261,61.784494 C15.2012424,60.8662192 15.1061038,60.3031717 13.0550647,58.0872294 C9.06789415,53.778587 2.79986926,51.092633 0.951462945,52.9013929" id="Path"></path>
                </g>
                <g id="left-hand" transform="translate(495.000000, 451.000000)" fill="#FCF6D0">
                    <path d="M0.487018821,1.39576542 C-0.487018821,2.95128713 4.15914073,7.20705038 6.83165651,7.20705038 C9.37145966,7.20705038 8.86617763,2.66780981 6.16809337,1.24321619 C3.11326781,-0.368760744 1.56698306,-0.327920792 0.487018821,1.39576542" id="Path"></path>
                    <path d="M28.7146297,16.6518899 C27.6833673,18.2987009 29.9175662,23.5694571 31.9776558,24.3490197 C32.9273425,24.708171 34.4651044,24.5376042 35.3965279,23.9706495 C36.7918368,23.1190164 36.6518189,22.3598738 34.6026872,19.6524252 C31.8047641,15.9552084 29.7933764,14.930606 28.7146297,16.6518899" id="Path"></path>
                </g>
            </g>
            <g id="head" transform="translate(44.000000, 18.000000)">
                <path d="M261.306397,1.38015456 C257.021212,2.3461157 248.822424,4.77667628 243.086869,6.78086498 C237.351313,8.78384925 230.310424,10.4230925 227.43965,10.4230925 C216.304162,10.4230925 200.942222,22.2615365 186.023785,42.3407612 C173.650088,58.9933531 170.832054,68.725231 169.445212,99.5974454 C168.658896,117.106394 168.658896,117.106394 172.467017,120.327068 C174.562263,122.097595 177.061455,125.785591 178.021576,128.520875 C180.873172,136.640008 186.207178,142.138278 201.866384,153.098685 C210.019623,158.805323 219.554909,166.517354 223.056175,170.237871 C238.512808,186.65921 273.879071,211.446592 286.454141,214.672083 C302.834936,218.873171 319.254088,214.847931 325.859865,205.011267 C330.012,198.830079 334.419448,186.142505 334.438626,180.316627 C334.445818,177.960742 335.2633,173.052648 336.253387,169.409216 C338.222774,162.162098 340.652444,113.879699 339.54369,104.010515 C339.186492,100.831997 339.552081,93.3921688 340.356377,87.4759579 C342.041684,75.0870848 341.273347,71.408724 334.956444,61.6118064 C332.820444,58.2995955 330.703623,53.4469054 330.251731,50.8284521 C329.238869,44.9604189 325.907811,38.2516863 321.421253,33.040073 C319.551354,30.8684671 315.787582,25.2172331 313.055852,20.4825781 C304.656889,5.91969015 296.22796,0.826112011 279.286195,0.0745412477 C273.061589,-0.202480027 266.066249,0.30579379 261.306397,1.38015456 M354.801347,160.375913 C354.801347,160.707134 355.071044,160.978133 355.400673,160.978133 C355.730303,160.978133 356,160.707134 356,160.375913 C356,160.044692 355.730303,159.773693 355.400673,159.773693 C355.071044,159.773693 354.801347,160.044692 354.801347,160.375913 M0,332.00866 C0,332.891514 0.35959596,333.252846 0.799501684,332.812021 C1.23820875,332.369992 1.23820875,331.647327 0.799501684,331.205298 C0.35959596,330.764473 0,331.125805 0,332.00866" id="head-outline" fill="#2B1909"></path>
                <g id="head-skin" transform="translate(183.000000, 28.000000)" fill="#EFB88C">
                    <path d="M9.08817006,69.5055936 C7.03420534,70.7494449 4.17583159,73.251555 2.73757244,75.0657049 C-2.78200413,82.0317524 0.337651351,96.9651717 11.3139033,116.115199 C15.4206231,123.27935 18.1096476,126.301332 24.691286,131.144668 C29.2830705,134.523237 33.360759,136.733595 33.9026767,136.139284 C36.3715471,133.425863 37.8291605,121.838596 37.7154545,105.836617 C37.5981197,89.4996627 37.4009487,88.1525573 33.9087249,79.8261976 C30.9112428,72.6788552 29.4741933,70.6906141 26.1815596,69.1406025 C20.7648022,66.5892666 13.6557618,66.7417465 9.08817006,69.5055936" id="ear-skin"></path>
                    <path d="M86.1965216,1.33990158 C81.9760959,1.85737253 75.1718842,3.39537784 71.0760511,4.759292 C62.8444669,7.4991266 42.2177258,18.131894 41.6080685,19.9496458 C41.3939626,20.5847783 43.8120283,21.7902095 46.9812789,22.6282483 C50.1505295,23.4662871 55.0556101,25.4941489 57.883743,27.1342077 C64.9032702,31.2067401 64.7895643,34.4088167 57.4144036,40.4371732 C44.1458882,51.2848531 43.3063997,52.3918327 43.963233,58.1740604 C44.9502973,66.86301 52.7415733,81.7315953 60.076816,88.9221603 C66.5532159,95.2686834 66.5532159,95.2686834 67.7592247,92.120635 C69.7248858,86.9867469 74.0614368,84.8688379 79.5810134,86.3444106 C84.9820454,87.7875662 97.9650863,95.2158557 100.315412,98.2078223 C101.32546,99.4912944 101.716173,102.169897 101.365378,105.407992 C100.817412,110.481849 100.848862,110.533476 103.387892,108.706119 C112.787986,101.940577 118.18297,99.6761912 124.716223,99.7554327 C138.467383,99.9235207 144.011153,103.593842 144.05228,112.558937 C144.076473,117.694025 145.513523,117.49352 148.346494,111.958622 C150.275866,108.19105 150.683514,104.519527 150.850444,89.446835 C150.960521,79.5416486 151.451634,67.9219644 151.941537,63.6249145 C152.83304,55.8136244 152.83304,55.8136244 148.410605,53.719728 C145.978024,52.5695258 142.369675,51.6270323 140.390707,51.6270323 C137.078719,51.6270323 136.912999,51.4325304 138.314969,49.1813517 C140.231035,46.1005386 144.75387,44.896308 147.110244,46.8377246 C149.836768,49.0829002 149.26219,46.3922913 146.187291,42.5190633 C144.68976,40.6328757 142.791838,35.8327623 141.969284,31.8514777 C140.038703,22.5201917 135.638041,16.4318038 126.178675,10.0084405 C114.725825,2.23076805 101.793589,-0.57269987 86.1965216,1.33990158" id="face-skin"></path>
                    <path d="M116.706002,109.718249 C108.338939,113.473816 106.352714,122.448515 112.712988,127.760096 C117.422108,131.693356 120.633696,132.477366 129.450744,131.844635 C137.10896,131.294747 144.018411,127.935388 141.872513,125.805473 C141.01488,124.954227 139.402433,124.990246 136.724296,125.917131 C121.82156,131.072631 107.040998,120.047258 119.964766,113.414985 C124.850493,110.906872 131.505919,111.244248 136.937192,114.273434 C142.743453,117.512731 144.432107,116.273682 140.088298,111.962224 C137.306131,109.200778 135.661024,108.685709 128.660851,108.379548 C123.481183,108.15383 119.097456,108.644887 116.706002,109.718249" id="mouth-skin"></path>
                </g>
                <g id="ear" transform="translate(190.000000, 99.000000)">
                    <path d="M5.26302788,1.9909091 C0.636241593,4.55457824 0.0385955378,5.64628996 0.0175434263,11.587928 C-0.00584780876,18.1932024 1.86428143,19.2119739 2.67361816,13.0359706 C3.69113689,5.28158889 8.76118708,2.67128585 13.6628204,7.37891896 C17.2416793,10.8154792 17.936399,9.78833748 15.4616064,4.71839479 C13.1411958,-0.0346764949 10.2956521,-0.796363641 5.26302788,1.9909091" id="Path" fill="#000000"></path>
                    <path d="M10.8336505,13.2906635 C4.56012127,15.1440623 3.73908892,24.1946275 9.78104493,24.9025063 C15.5797321,25.582883 20.1176317,19.4822114 18.003064,13.8490746 C17.2124403,11.7421786 16.3153864,11.6728256 10.8336505,13.2906635" id="Path" fill="#333333"></path>
                    <path d="M15.7820663,23.9219985 C13.3294953,26.6937266 13.3365126,26.7032925 18.5948623,28.5208192 C24.2157761,30.4615071 24.357293,30.3694351 22.9304277,25.7084359 C21.4719842,20.9446029 18.9714612,20.3192303 15.7820663,23.9219985" id="Path" fill="#333333"></path>
                    <path d="M5.84780876,39.4821788 C5.84780876,40.973268 16.4721077,49.978395 20.4673306,51.8760363 C29.025014,55.9403607 29.2390438,55.8590503 29.2390438,48.5829651 C29.2390438,42.0016055 29.2390438,42.0016055 25.3572683,42.6449142 C23.0754534,43.0239642 18.2533503,42.3017365 13.6616508,40.8931534 C9.36351138,39.5742508 5.84780876,38.940508 5.84780876,39.4821788" id="Path" fill="#000000"></path>
                </g>
                <g id="face" transform="translate(259.000000, 65.000000)" fill="#262625">
                    <g id="eyebrow">
                        <path d="M16.511395,2.14642384 C11.5934654,3.96077463 1.98297347,10.7655943 2.94013702,11.7564575 C3.22637944,12.0510384 6.85298017,11.0869553 10.9989619,9.61271165 C20.0343786,6.3991014 24.2593685,6.29332006 33.6755782,9.04363483 C43.8805736,12.0242583 44.3002231,11.9921222 46.4761836,8.0621447 C48.1185156,5.09758925 48.1612577,4.15493025 46.7300456,2.37137656 C44.5359522,-0.361531153 23.7283305,-0.516855648 16.511395,2.14642384" id="Path"></path>
                        <path d="M0,12.9562053 C0,13.3244315 0.291423273,13.6257074 0.647607273,13.6257074 C1.00379127,13.6257074 1.29521455,13.3244315 1.29521455,12.9562053 C1.29521455,12.5879791 1.00379127,12.2867032 0.647607273,12.2867032 C0.291423273,12.2867032 0,12.5879791 0,12.9562053" id="Path"></path>
                    </g>
                    <path d="M23.1024716,29.3070343 C28.4164036,31.0306962 32.2929953,24.2526875 28.3177626,20.1904902 C26.0236546,17.8461949 22.2626139,18.0146731 20.2010168,20.5533664 C17.9604568,23.3123774 19.5683052,28.1608064 23.1024716,29.3070343 Z" id="eye-right"></path>
                    <path d="M65.7400593,27.392733 C63.6074878,30.1804587 64.984466,36.9466985 67.683397,36.9466985 C70.558141,36.9466985 71.8250683,29.8965911 69.4200537,27.2879204 C67.6914495,25.414394 67.2445355,25.4260399 65.7400593,27.392733" id="eye-left"></path>
                </g>
            </g>
            <g id="flames" transform="translate(362.000000, 115.000000)">
                <g id="flame-3" transform="translate(125.000000, 68.000000)">
                    <path d="M40.6642698,1.63709402 C37.8902334,2.4817834 30.9703312,5.59679338 25.2885994,8.55843472 C18.1244653,12.2915668 13.5253731,13.9472509 10.2847446,13.9588698 C-2.00582801,14.0006976 -3.54290902,18.0312718 7.13038707,22.2314811 C16.2252893,25.8100826 25.3712251,25.856558 33.7832502,22.3662596 C42.4200658,18.7830105 46.1370072,19.0630245 55.5320351,24.0010299 C65.2332642,29.0993752 72.2576636,29.7535156 77.5153312,26.0471069 C83.3246468,21.952629 91.5203871,5.57936512 88.9784318,3.1487046 C88.4097725,2.60494307 85.1351217,3.81214014 81.70251,5.83265575 C72.7716441,11.0866935 66.8663368,10.9763145 59.2392558,5.40856823 C56.0399401,3.07318216 52.7798703,1.15491231 51.9949262,1.14561725 C51.2111971,1.13748406 49.4760575,0.898136035 48.1394653,0.615798317 C46.8028731,0.332298714 43.4395211,0.792404626 40.6642698,1.63709402" id="Path" fill="#000000"></path>
                    <path d="M34.3397586,8.14364227 C30.0906105,10.0653978 25.1318536,12.648265 23.3177334,13.8833473 C21.5048284,15.1172677 17.3249401,16.7868945 14.030848,17.5909179 C8.04169992,19.0537294 8.04169992,19.0537294 12.9020351,20.475875 C20.4015323,22.6695112 24.978753,22.3395363 32.6119094,19.0548913 C41.9510435,15.0382596 46.6886552,15.1439911 54.471267,19.5440443 C62.6949541,24.1939025 69.4313787,25.9355661 73.4885435,24.4611358 C76.6696329,23.3038997 81.876267,16.6463066 83.3683899,11.8256514 C84.1849262,9.18933752 84.1229569,9.16609985 80.7110016,10.8543167 C76.091253,13.1385799 68.9125379,14.3678528 65.2830826,13.497602 C63.6767418,13.1118566 60.0679429,10.9623719 57.2623144,8.72226031 C50.6498284,3.4391755 45.0519374,3.2974257 34.3397586,8.14364227" id="Path-Copy" fill="url(#linearGradient-1)"></path>
                </g>
                <g id="flame-2" transform="translate(115.000000, 0.000000)">
                    <path d="M34.1659006,1.29740767 C32.4881108,1.99732497 27.7073252,4.78358111 23.5415257,7.49057832 C18.708271,10.6304512 14.0726904,12.62046 10.729313,12.9874898 C-1.59847606,14.3446465 -2.18173679,15.2713662 6.48908069,19.7293761 C13.9396874,23.5606307 24.2602298,23.3228539 32.9456898,19.1221307 C36.6368273,17.3369758 40.9075649,15.870076 42.4352687,15.8639791 C43.9641928,15.8566629 49.0158652,17.8417942 53.6624277,20.2744336 C62.8628166,25.0909377 68.9589895,25.9420566 75.337031,23.2996859 C78.7096934,21.9035094 84.1945407,15.4871944 84.1945407,12.9399344 C84.1945407,12.5021813 79.0269482,12.5070587 72.7123577,12.9509087 C61.2289545,13.7581304 61.2289545,13.7581304 54.4409221,7.34181541 C48.8157507,2.02537044 46.7596956,0.849899575 42.4352687,0.475553564 C39.5653331,0.226802469 35.8436903,0.597490375 34.1659006,1.29740767" id="Path" stroke="#000000" stroke-width="2.23214286" fill="#000000"></path>
                    <path d="M30.9530857,5.93466461 C27.5072106,7.83322076 22.9521639,10.6219156 20.8289972,12.1327127 C18.7058306,13.6435098 14.7145213,15.1823524 11.9592854,15.5518209 C7.47623117,16.15175 7.17849975,16.3907462 9.13083693,17.8161875 C10.3303041,18.6929132 13.635855,19.7586409 16.4777258,20.1842004 C20.6715901,20.812175 23.259657,20.2488269 30.2441433,17.1857742 C34.9749003,15.1104097 40.4597475,13.4130492 42.4328283,13.4130492 C44.4071293,13.4130492 49.7077247,15.333554 54.2151832,17.6808376 C64.6955732,23.1399487 72.3780199,23.5216109 77.4406743,18.8331405 C79.291734,17.1187089 80.5863776,15.4981687 80.3191514,15.2311271 C80.0519253,14.9628661 76.4449823,15.2225915 72.3048073,15.8078882 C62.2307475,17.2308908 60.3418613,16.5858451 52.2543045,8.96479437 C43.9995789,1.18644517 40.4792709,0.685284879 30.9530857,5.93466461" id="Path" fill="url(#linearGradient-2)"></path>
                </g>
                <path d="M66.8291804,22.1529068 C64.7595005,23.0350507 58.9997778,27.3968199 54.039521,31.8634085 C39.6697322,44.8018172 36.6499932,46.7073015 29.4905233,46.7073015 L7.19025143,46.707302 C4.56211751,46.707302 2.75348697,46.9966949 1.70887841,47.6575782 C1.11228748,48.0350182 0.733723073,48.5277556 0.555391831,49.1453973 C0.392038479,49.7111638 0.40184227,50.3968242 0.61343888,51.2227264 C1.20871077,53.5461868 25.6057434,61.7113159 25.6779406,61.7295577 C32.7271396,63.0175026 36.1115881,62.677419 49.671624,59.2063923 C66.9594878,54.7824511 69.8395165,55.0225521 80.5223889,62.157907 C97.0571366,73.2033708 105.532364,76.8521439 115.810426,77.4439976 C128.607886,78.1805208 139.290795,75.416317 154.260714,67.4579131 C168.572599,59.8511838 171.314497,59.5591794 183.083352,64.7103265 C185.475495,65.7574394 187.740183,66.6200139 189.461391,67.1666459 C190.359315,67.4518139 191.113105,67.6516863 191.665925,67.7507919 C192.522283,67.9043137 192.955304,67.7425694 193.114026,67.5852741 C193.372824,67.3285766 193.529989,66.9797376 193.554671,66.5270038 C193.573835,66.1754812 193.509067,65.7490665 193.347956,65.2538726 C193.062867,64.3776128 192.466235,63.2514463 191.569607,61.9138268 C189.850449,59.3491286 187.013074,55.9702145 183.223837,52.0336102 C178.441813,47.0660508 175.622485,44.6346845 171.263099,44.4543668 C166.981907,44.2772835 161.156526,46.3425239 150.311017,50.5642032 C136.789585,55.8262371 132.99668,56.8131279 124.501205,57.2314687 C113.984192,57.751243 104.803629,56.1761059 101.425781,53.1544311 C100.137395,52.0015198 99.5280618,50.5026143 99.597652,48.9747067 C99.668392,47.421555 100.434764,45.849943 101.854913,44.5760999 C103.980451,42.6693859 106.894894,42.3344239 121.2001,41.8123124 C138.54298,41.1774148 138.535741,41.1580408 147.067267,36.0505657 C152.302362,32.9148369 156.721126,31.0738408 159.174233,31.0738408 C160.412191,31.0738408 161.337744,30.9202468 161.958329,30.6685548 C162.35917,30.5059848 162.648666,30.2978483 162.841947,30.0685936 C163.085702,29.7794718 163.194847,29.4501838 163.176752,29.090495 C163.149896,28.5566568 162.79643,27.8982904 161.984134,27.2043218 C161.344516,26.6578767 160.413667,26.0696218 159.188839,25.4778134 C156.330069,24.0957371 154.553236,24.2212744 145.411091,27.0454808 C135.501746,30.107309 135.261385,30.1273631 126.029917,28.3467537 C102.947799,23.893361 96.8545621,24.6629111 85.4716038,33.143037 C79.6104934,37.5092571 77.7145823,38.3325355 73.1216471,38.3325355 C71.625734,38.3325355 70.2702628,38.2350049 69.2914743,38.0760944 C68.9250439,38.0166028 68.6184867,37.9469875 68.1861727,37.7020687 C68.5714689,35.3159107 71.9754075,31.5250298 77.2540674,27.3673978 C81.1810897,24.2737015 83.7950935,21.248648 83.0369457,19.7355702 C82.7131545,19.6059711 82.2364344,19.5144856 81.6377556,19.4721847 C80.4887013,19.390996 78.8494946,19.4777192 77.0281578,19.7000777 C73.5767473,20.1214443 69.4673572,21.0284332 66.8291804,22.1529068 Z" id="flame-1-outer" stroke="#000000" stroke-width="1.11607143" fill="#000000"></path>
                <path d="M68.3356281,25.6431056 C66.3439596,26.5442967 59.8595698,31.5935827 53.9256047,36.8651943 C38.6163128,50.4674738 36.3180481,51.3532092 18.6404813,50.4603404 C10.7860649,50.0644345 4.65534718,50.05849 5.01505458,50.4496402 C5.37355491,50.8396016 10.6496658,53.0533455 16.7381361,55.3693354 C29.9012543,60.3770097 34.6740163,60.5815016 48.4708472,56.7330112 C68.5794566,51.1225613 69.8987861,51.3413201 87.8165602,63.2684304 C99.5492983,71.0771684 108.914969,74.974404 116.014965,74.9993711 C128.636108,75.0433606 136.850232,72.7903827 152.830655,64.8996101 C161.461219,60.6385691 169.244418,57.1633954 170.126788,57.1776622 C171.010364,57.1907402 175.25805,58.5912721 179.566089,60.2902195 C183.875336,61.987978 187.660713,63.1221949 187.976966,62.8095125 C188.293218,62.4980189 185.315372,58.8920655 181.358591,54.7974714 C174.510872,47.7092107 173.941134,47.3810725 169.532908,47.9731479 C166.985987,48.3167419 157.761544,51.3199198 149.035622,54.6488581 C129.949402,61.9297216 126.250934,62.599076 114.790994,60.8478167 C99.9198693,58.5746274 94.1343741,54.3801652 95.964295,47.1991698 C97.444165,41.3937392 101.626669,40.0276856 120.18057,39.2869968 C137.748293,38.585542 141.30312,37.6605727 148.605904,31.8943761 C151.916902,29.2799706 152.397317,29.250248 141.067741,32.3485384 C136.122367,33.7003251 133.976194,33.6361241 125.375807,31.8812981 C114.0921,29.5771973 100.918118,29.2419256 95.8785929,31.1287203 C94.0112528,31.8289862 89.6356174,34.5646601 86.1544223,37.2099771 C80.6344829,41.4044394 78.8202539,42.0987608 71.9677072,42.6397132 C64.4995538,43.2305998 64.1108767,43.1331095 64.1108767,40.6613728 C64.1108767,36.6428687 67.1804604,31.7196068 72.2079145,27.6749468 C75.896726,24.7074361 76.316787,23.9940922 74.3709872,24.0000367 C73.0432082,24.0036035 70.3272966,24.7431033 68.3356281,25.6431056" id="flame-1-inner" fill="url(#linearGradient-3)"></path>
            </g>
        </g>
    </g>
</svg>