<svg height="1299" viewBox="0 0 1379 1299" width="1379" xmlns="http://www.w3.org/2000/svg"><path d="m63.247 248.25.253 185.25 225.25.252c123.887.139 225.25-.024 225.25-.363 0-.338-3.172-3.551-7.048-7.14-17.46-16.165-25.511-34.732-27.882-64.299-.641-8.002-1.07-45.718-1.07-94.15v-80.8h41.974 41.975l.275 90.272.276 90.272 3.282 6.666c3.704 7.522 7.25 10.947 15.218 14.7 4.971 2.341 6.653 2.589 17.5 2.575 11.08-.014 12.437-.229 17.702-2.8 6.832-3.337 13.883-10.811 16.454-17.441 1.729-4.46 1.856-10.122 2.117-94.494l.278-89.75h41.975 41.974l-.003 79.25c-.004 86.022-.43 95.539-5.089 113.607-4.969 19.272-16.56 38.287-29.499 48.392-2.975 2.324-5.409 4.568-5.409 4.988s27.9.763 62 .763c40.667 0 62-.344 62-1 0-.55-.399-1-.887-1-2.121 0-20.253-18.58-26.009-26.652-10.907-15.296-19.236-34.46-23.62-54.348-2.253-10.219-3.105-40.019-1.508-52.746 2.806-22.375 14.018-50.624 27.102-68.285 19.977-26.967 48.604-44.589 82.286-50.653 12.82-2.309 39.861-2.258 53.136.099 35.514 6.306 67.084 24.487 86.971 50.085 7.046 9.07 14.143 20.781 12.875 21.246-.465.171-16.146 7.879-34.846 17.128l-34 16.819-3.53-7.097c-12.489-25.104-27.797-35.91-50.97-35.979-27.326-.082-46.378 17.011-53.69 48.169-1.435 6.117-1.785 11.544-1.689 26.214.109 16.508.404 19.577 2.74 28.5 7.965 30.417 26.368 46.55 53.025 46.485 22.261-.054 40.872-13.302 50.19-35.726 1.544-3.718 2.893-6.893 2.996-7.056s12.955 5.858 28.558 13.379c15.604 7.522 30.62 14.704 33.37 15.959 9.341 4.265 9.238 3.974 4.423 12.497-9.2 16.283-20.097 29.303-31.774 37.962-3.338 2.475-6.087 4.843-6.109 5.262s16.947.644 37.71.5l37.75-.262.5-123.25c.275-67.788.838-123.25 1.25-123.25h41.245 40.495l.255 96.75.255 96.75 54 .5 54 .5v26 26l38.25.262 38.25.262v-185.512-185.512h-626.503-626.502zm326.999-58c-.601 1.238-1.32 4.239-1.597 6.67-.301 2.634-1.164 4.789-2.137 5.333-3.163 1.77-8.63 7.074-9.977 9.68-.75 1.45-1.686 4.421-2.08 6.602s-1.143 4.504-1.665 5.163c-.522.66-1.102 3.697-1.288 6.75-.398 6.514-1.017 6.327 11.422 3.462l9.076-2.089 9.076 2.089c4.991 1.15 9.549 2.09 10.127 2.09.656 0 .828-1.415.457-3.75-.328-2.062-.184-4.415.321-5.227.602-.969.463-2.001-.405-3-.727-.838-1.643-3.307-2.035-5.488s-1.326-5.152-2.076-6.602c-1.347-2.606-6.814-7.91-9.977-9.68-.973-.544-1.836-2.699-2.137-5.333-.516-4.524-2.168-8.92-3.351-8.92-.364 0-1.154 1.012-1.754 2.25m-4.246 44.799c-1.925.467-11.133 2.452-20.463 4.412-16.539 3.475-19.86 4.603-17.624 5.985.598.37 1.087 1.545 1.087 2.613s.627 1.941 1.393 1.941c2.221 0 2.607 2.366 2.607 15.957 0 14.449-.633 19.043-2.625 19.043-.861 0-1.375 1.121-1.375 3 0 2.057-.493 3-1.566 3-1.119 0-1.476.786-1.25 2.75l.316 2.75h45.5 45.5l.316-2.75c.226-1.964-.131-2.75-1.25-2.75-1.073 0-1.566-.943-1.566-3 0-1.879-.514-3-1.375-3-2.006 0-2.625-4.608-2.625-19.554 0-9.351.375-13.696 1.263-14.625.695-.726 2.06-2.567 3.035-4.089 1.361-2.127 1.474-2.879.487-3.248-2.604-.973-43.101-9.481-44.666-9.384-.89.056-3.194.483-5.119.949m-27.323 15.701c-1.41 2.394-1.801 8.868-1.17 19.361l.714 11.889h4.283c2.982 0 4.466-.48 4.889-1.582.785-2.045.766-25.224-.023-28.168-.492-1.836-1.307-2.25-4.428-2.25-2.103 0-4.023.338-4.265.75m13.818 1.444c-.314 1.268-.441 8.381-.283 15.806l.288 13.5 4.604.299 4.605.299.533-13.146c.692-17.072.347-18.362-5.025-18.758-3.626-.267-4.223-.014-4.722 2m14.986.056c-.306 1.238-.427 8.325-.269 15.75l.288 13.5h4.5 4.5l.288-13.5c.373-17.507.242-18-4.788-18-3.277 0-4.058.389-4.519 2.25m14.554-.316c-1.098 2.053-1.456 25.807-.428 28.484.848 2.211 8.938 2.211 9.786 0 .785-2.045.766-25.224-.023-28.168-.493-1.839-1.306-2.25-4.451-2.25-2.782 0-4.136.536-4.884 1.934m14.446.316c-.306 1.238-.427 8.325-.269 15.75l.288 13.5h4.5 4.5l.288-13.5c.373-17.507.242-18-4.788-18-3.277 0-4.058.389-4.519 2.25m-353.481 616.75v367h329.518 329.519l-.269-23.25-.268-23.25-305.75-.252-305.75-.251v-320.499-320.5l579.75.251 579.75.251.252 320.247.251 320.246-147.751.254-147.752.253-.268 23.25-.269 23.25h171.019 171.018v-367-367h-626.5-626.5zm203-1.5v180.5h33.5 33.5v-180.5-180.5h-33.5-33.5zm140.247-.25.253 180.25 33.25.263 33.25.264v-180.514-180.513h-33.503-33.502zm140.753.25v180.5h34 34v-61.409-61.409l47.25-.442c50.734-.475 54.328-.785 73.456-6.328 20.771-6.019 35.34-14.325 48.844-27.849 18.497-18.522 27.328-39.014 30.562-70.915 2.154-21.242-1.617-45.761-9.937-64.614-10.795-24.464-31.563-44.895-57.074-56.148-10.008-4.415-28.31-9.348-40.221-10.842-5.133-.643-37.584-1.044-84.604-1.044h-76.276zm315-.049v180.549h33.5 33.5v-61.416-61.416l47.25-.417c51.591-.456 56.009-.858 75.75-6.887 19.647-6 34.91-15.004 47.724-28.155 12.838-13.173 21.047-27.966 25.646-46.209 11.85-47.007.63-93.162-29.708-122.208-16.695-15.983-34.78-25.19-61.892-31.507-9.02-2.102-11.462-2.17-90.52-2.521l-81.25-.362zm-247-59.845v62.606l38.25-.479c35.024-.439 38.967-.662 46.75-2.647 29.161-7.437 43.744-25.517 45.642-56.586 1.044-17.101-1.919-30.477-9.195-41.5-8.728-13.225-22.441-20.158-45.421-22.965-4.66-.569-23.673-1.035-42.25-1.035h-33.776zm314-.187v62.581h31.394c36.757 0 48.867-.99 60.367-4.935 16.163-5.545 26.271-14.021 32.674-27.398 5.081-10.615 6.927-21.326 6.307-36.594-.998-24.564-9.207-38.81-27.704-48.078-12.747-6.387-19.863-7.249-63.788-7.728l-39.25-.428z" fill-rule="evenodd"/></svg>